<svg width="17" height="17" viewBox="0 0 17 17" fill="none" xmlns="http://www.w3.org/2000/svg">
<path fill-rule="evenodd" clip-rule="evenodd" d="M2.88577 4.16225C1.82264 4.16225 0.959961 3.28167 0.959961 2.21854C0.959961 1.1554 1.82264 0.292725 2.88577 0.292725C3.94891 0.292725 4.81159 1.1554 4.81159 2.21854C4.81159 3.28167 3.94891 4.16225 2.88577 4.16225ZM4.55028 16.3292H1.22485V5.62271H4.55028V16.3292ZM13.6782 16.3293H16.9965H17.0001V10.448C17.0001 7.57002 16.3808 5.35427 13.016 5.35427C11.398 5.35427 10.3134 6.242 9.86953 7.0832H9.823V5.62273H6.63359V16.3293H9.95544V11.0279C9.95544 9.63186 10.2203 8.28236 11.9493 8.28236C13.6531 8.28236 13.6782 9.87527 13.6782 11.1174V16.3293Z" fill="white"/>
</svg>
