<svg width="18" height="13" viewBox="0 0 18 13" fill="none" xmlns="http://www.w3.org/2000/svg">
<path fill-rule="evenodd" clip-rule="evenodd" d="M16.0325 0.711818C16.8069 0.920152 17.4169 1.53404 17.6239 2.31352C18 3.72638 18 6.67416 18 6.67416C18 6.67416 18 9.62194 17.6239 11.0348C17.4169 11.8143 16.8069 12.4026 16.0325 12.6109C14.6287 12.9895 9 12.9895 9 12.9895C9 12.9895 3.37127 12.9895 1.96752 12.6109C1.19308 12.4026 0.583143 11.8143 0.376127 11.0348C0 9.62194 0 6.67416 0 6.67416C0 6.67416 0 3.72638 0.376127 2.31352C0.583143 1.53404 1.19308 0.920185 1.96752 0.711818C3.37127 0.333252 9 0.333252 9 0.333252C9 0.333252 14.6288 0.333252 16.0325 0.711818ZM7.15907 3.99781V9.35054L11.8636 6.67424L7.15907 3.99781Z" fill="white"/>
</svg>
